<?xml version="1.0" encoding="utf-8"?>
<!-- Generator: Adobe Illustrator 26.5.0, SVG Export Plug-In . SVG Version: 6.00 Build 0)  -->
<svg version="1.1" id="Livello_1" xmlns="http://www.w3.org/2000/svg" xmlns:xlink="http://www.w3.org/1999/xlink" x="0px" y="0px"
	 viewBox="0 0 2293.5 322.8" style="enable-background:new 0 0 2293.5 322.8;" xml:space="preserve">
<style type="text/css">
	.st0{fill:none;stroke:#0092FF;stroke-width:27.2568;stroke-miterlimit:10;}
	.st1{fill:#0092FF;}
	.st2{fill:none;stroke:#0092FF;stroke-width:29.8593;stroke-miterlimit:10;}
	.st3{fill:#FF4800;}
</style>
<g>
	<g>
		<g>
			<path d="M292.5,170.1c-16.7,6.1-30.4,9.1-61.5,9.1h-66.3v43.5h-59.3v-123h129.4c28.3,0,40.7,3.2,57.5,9.6
				c16.8,6.4,21.8,16.3,21.8,29.7C314.2,153.7,309.2,164.1,292.5,170.1z M355.4,124.6c-7.6-2.9-14.8-4.4-28.4-4.4H164.8V159h162.3
				c13.6,0,20.8-1.6,28.4-4.7c7.6-3.2,11.3-8.1,11.3-15C366.8,132.4,363,127.5,355.4,124.6z"/>
			<path d="M1655.7,99.7h58.8c0.3,0,0.5,0.2,0.5,0.5v72.3c0,29.2,23.7,52.9,52.9,52.9h89.3c0.3,0,0.5-0.2,0.5-0.5v-28.1
				c0-0.3-0.2-0.5-0.5-0.5h-167.3c-19.1,0-34.6-15.5-34.6-34.6v-61.6C1655.2,99.9,1655.4,99.7,1655.7,99.7z"/>
			<g>
				<path d="M515,223.4h143.7v-22.2h-177C487.1,214.2,500,223.4,515,223.4z"/>
				<path d="M481.8,121.6h-40.5c-12.2,0-22.1,9.9-22.1,22.1v35.4c0,12.2,9.9,22.1,22.1,22.1h40.4c-1.8-4.3-2.8-8.9-2.8-13.8v-18
					h179.8v-21.5H478.9v-12.1C478.9,130.7,480,126,481.8,121.6z"/>
				<path d="M658.7,99.7H515c-14.9,0-27.7,9-33.2,21.9h176.9V99.7z"/>
			</g>
			<g>
				<path d="M914.7,99.7v89.6c-26.2,0-46-13.1-67.1-22.8c18.1,28.8,40.1,56.2,122.7,56.9V99.7H914.7z"/>
				<path d="M720.2,99.9h-1.8v123.5H774v-86.2c30.4,0,52.8,19.7,73.6,29.3C827.2,134.1,811.7,99.9,720.2,99.9z"/>
			</g>
			<path d="M1179.7,101.3h-1.2h-58.9h-1.2h-95.6v22.4h47.2c18.5,0,36.2-7.9,48.5-21.8l0.2-0.3v22.4v50v49.4h0.4h59.6h0.4V174v-50
				v-22.4l0.2,0.3c12.3,13.8,30,21.8,48.5,21.8h47.2v-22.4H1179.7z"/>
			<path d="M1538.4,210.2c-0.1,0.1-0.2,0.1-0.3,0.2c-1.2,0.7-2.5,1.4-3.8,2.1c-16.9,9.6-41.4,14.4-73.4,14.4c0,0-0.1,0-0.1,0
				c0,0-0.1,0-0.1,0c-32,0-56.5-4.8-73.4-14.4c-22.6-11.4-33.9-28.4-33.9-51c0-21.2,9.9-37.4,29.7-48.7c0,0,0.1-0.1,0.1-0.1
				c0.1-0.1,0.2-0.1,0.3-0.2c1.2-0.7,2.5-1.4,3.8-2.1c16.9-9.6,41.4-14.4,73.4-14.4c0,0,0.1,0,0.1,0c0,0,0.1,0,0.1,0
				c32,0,56.5,4.8,73.4,14.4c22.6,11.4,33.9,28.4,33.9,51c0,21.2-9.9,37.4-29.7,48.7C1538.5,210.1,1538.5,210.1,1538.4,210.2z
				 M1592.5,137.6c-12.8-5.6-30.1-8.4-51.8-8.4c-0.2,0-0.3,0-0.5,0c-16.2,0-145,0-158.6,0c-0.2,0-0.4,0-0.5,0
				c-21.8,0-39,2.8-51.8,8.4c-12.8,5.6-19.2,13.5-19.2,23.8c0,10.3,6.4,18.2,19.2,23.8c12.8,5.6,30.1,8.4,51.8,8.4
				c0.2,0,0.3,0,0.5,0c13.6,0,142.4,0,158.6,0c0.2,0,0.4,0,0.5,0c21.8,0,39-2.8,51.8-8.4c12.8-5.6,19.2-13.5,19.2-23.8
				C1611.7,151.1,1605.3,143.2,1592.5,137.6z"/>
			<path d="M2114.7,210.2c-0.1,0.1-0.2,0.1-0.3,0.2c-1.2,0.7-2.5,1.4-3.8,2.1c-16.9,9.6-41.4,14.4-73.4,14.4c0,0-0.1,0-0.1,0
				c0,0-0.1,0-0.1,0c-32,0-56.5-4.8-73.4-14.4c-22.6-11.4-33.9-28.4-33.9-51c0-21.2,9.9-37.4,29.7-48.7c0,0,0.1-0.1,0.1-0.1
				c0.1-0.1,0.2-0.1,0.3-0.2c1.2-0.7,2.5-1.4,3.8-2.1c16.9-9.6,41.4-14.4,73.4-14.4c0,0,0.1,0,0.1,0c0,0,0.1,0,0.1,0
				c32,0,56.5,4.8,73.4,14.4c22.6,11.4,33.9,28.4,33.9,51c0,21.2-9.9,37.4-29.7,48.7C2114.8,210.1,2114.7,210.1,2114.7,210.2z
				 M2168.8,137.6c-12.8-5.6-30.1-8.4-51.8-8.4c-0.2,0-0.3,0-0.5,0c-16.2,0-145,0-158.6,0c-0.2,0-0.4,0-0.5,0
				c-21.8,0-39,2.8-51.8,8.4c-12.8,5.6-19.2,13.5-19.2,23.8c0,10.3,6.4,18.2,19.2,23.8c12.8,5.6,30.1,8.4,51.8,8.4
				c0.2,0,0.3,0,0.5,0c13.6,0,142.4,0,158.6,0c0.2,0,0.4,0,0.5,0c21.8,0,39-2.8,51.8-8.4c12.8-5.6,19.2-13.5,19.2-23.8
				C2188,151.1,2181.6,143.2,2168.8,137.6z"/>
		</g>
	</g>
	<g>
		<path d="M2196.6,98.8c-5.4-3.2-9.7-7.4-12.9-12.8c-3.2-5.4-4.8-11.3-4.8-17.9s1.6-12.5,4.8-17.9c3.2-5.4,7.5-9.6,12.9-12.9
			c5.4-3.2,11.4-4.8,17.9-4.8s12.5,1.6,17.9,4.8c5.4,3.2,9.6,7.5,12.8,12.9c3.2,5.4,4.8,11.3,4.8,17.9s-1.6,12.5-4.8,17.9
			c-3.2,5.4-7.4,9.6-12.8,12.8c-5.4,3.2-11.3,4.8-17.9,4.8S2202,101.9,2196.6,98.8z M2230.1,94.6c4.5-2.5,8.1-6,10.6-10.5
			c2.6-4.5,3.9-9.8,3.9-16c0-6.2-1.3-11.5-3.9-16c-2.6-4.5-6.1-8-10.6-10.6c-4.5-2.5-9.7-3.8-15.6-3.8c-6,0-11.2,1.3-15.7,3.8
			c-4.5,2.5-8.1,6.1-10.6,10.6c-2.6,4.5-3.9,9.8-3.9,16c0,6.2,1.3,11.5,3.9,16c2.6,4.5,6.1,8,10.6,10.5c4.5,2.5,9.7,3.7,15.7,3.7
			C2220.4,98.3,2225.6,97.1,2230.1,94.6z M2226.6,85.7c-0.1,0.1-0.2,0.2-0.4,0.2h-3.6c-0.2,0-0.4-0.1-0.6-0.4l-6.1-16.1
			c-0.1-0.2-0.1-0.3-0.1-0.4c0,0-0.3-0.1-1-0.1h-8.3c-0.4,0-0.6,0.2-0.6,0.6v15.8c0,0.4-0.1,0.6-0.4,0.6h-3.4
			c-0.3,0-0.4-0.1-0.4-0.4V51.3c0-0.4,0.1-0.6,0.3-0.6h14.9c3.5,0,6.2,0.7,8.1,2.2c1.9,1.4,2.9,3.6,2.9,6.5c0,3-0.8,5.1-2.4,6.5
			c-1.6,1.3-3.2,2.3-4.9,2.8c-0.3,0-0.3,0.1-0.1,0.3l6.3,16.4C2226.7,85.4,2226.7,85.6,2226.6,85.7z M2221,63.8
			c1.5-0.7,2.2-2,2.2-3.9c0-1.4-0.5-2.6-1.5-3.6c-1-1-3.1-1.5-6.4-1.5h-8.8c-0.2,0-0.3,0-0.4-0.1c-0.1-0.1-0.1,0.1-0.1,0.6v9.1
			c0,0.3,0.1,0.4,0.4,0.4h9.4C2217.7,64.8,2219.5,64.5,2221,63.8z"/>
	</g>
</g>
</svg>
